HIERARCHY
ROOT hip
{
	OFFSET 0.000000 0.000000 0.000000 
	CHANNELS 6 Xposition Yposition Zposition Xrotation Zrotation Yrotation
	JOINT abdomen
	{
		OFFSET 0.000000 3.402643 0.000000 
		CHANNELS 3 Xrotation Zrotation Yrotation
		JOINT chest
		{
			OFFSET 0.000000 8.438565 -0.680529 
			CHANNELS 3 Xrotation Zrotation Yrotation
			JOINT neck
			{
				OFFSET 0.000000 10.207942 -0.272212 
				CHANNELS 3 Xrotation Zrotation Yrotation
				JOINT head
				{
					OFFSET 0.000000 3.130431 0.000000 
					CHANNELS 3 Xrotation Zrotation Yrotation
					End Site
					{
						OFFSET 0.000000 3.130435 0.000000 
					}
				}
			}
			JOINT lCollar
			{
				OFFSET 3.470700 6.669187 -0.816635 
				CHANNELS 3 Yrotation Zrotation Xrotation
				JOINT lShldr
				{
					OFFSET 3.198488 0.000000 0.000000 
					CHANNELS 3 Zrotation Yrotation Xrotation
					JOINT lForeArm
					{
						OFFSET 10.139888 0.000000 0.000000 
						CHANNELS 3 Yrotation Zrotation Xrotation
						JOINT lHand
						{
							OFFSET 8.370511 0.000000 0.000000 
							CHANNELS 3 Zrotation Yrotation Xrotation
							End Site
							{
								OFFSET 4.083176 0.000000 0.000000 
							}
						}
					}
				}
			}
			JOINT rCollar
			{
				OFFSET -3.470700 6.669187 -0.816635 
				CHANNELS 3 Yrotation Zrotation Xrotation
				JOINT rShldr
				{
					OFFSET -3.198488 0.000000 0.000000 
					CHANNELS 3 Zrotation Yrotation Xrotation
					JOINT rForeArm
					{
						OFFSET -10.139888 0.000000 0.000000 
						CHANNELS 3 Yrotation Zrotation Xrotation
						JOINT rHand
						{
							OFFSET -8.370511 0.000000 0.000000 
							CHANNELS 3 Zrotation Yrotation Xrotation
							End Site
							{
								OFFSET -4.083176 0.000000 0.000000 
							}
						}
					}
				}
			}
		}
	}
	JOINT lThigh
	{
		OFFSET 5.308129 -1.633274 1.361059 
		CHANNELS 3 Xrotation Zrotation Yrotation
		JOINT lShin
		{
			OFFSET -2.041588 -20.007561 0.000000 
			CHANNELS 3 Xrotation Zrotation Yrotation
			JOINT lFoot
			{
				OFFSET 0.000000 -19.190928 -1.224953 
				CHANNELS 3 Xrotation Yrotation Zrotation
				End Site
				{
					OFFSET 0.000000 -2.449906 4.627600 
				}
			}
		}
	}
	JOINT rThigh
	{
		OFFSET -5.308129 -1.633274 1.361059 
		CHANNELS 3 Xrotation Zrotation Yrotation
		JOINT rShin
		{
			OFFSET 2.041588 -20.007561 0.000000 
			CHANNELS 3 Xrotation Zrotation Yrotation
			JOINT rFoot
			{
				OFFSET 0.000000 -19.190928 -1.224953 
				CHANNELS 3 Xrotation Yrotation Zrotation
				End Site
				{
					OFFSET 0.000000 -2.449906 4.627600 
				}
			}
		}
	}
}
MOTION
Frames: 13
Frame Time: 0.016667
-39.707401 41.125023 82.636490 6.946920 8.774020 -64.403000 -22.208200 -4.289090 -1.233940 23.765699 -3.471120 -1.688870 38.788799 30.096300 -0.872238 -8.603520 0.000000 0.000000 2.000000 -2.000000 0.000000 -75.010803 -11.171000 -171.399002 36.338299 -0.324978 0.081070 5.489400 0.971530 -160.315002 -2.000000 2.000000 0.000000 76.070396 4.122440 -145.830994 -60.156799 0.282884 0.118597 5.268960 4.153850 -152.669998 5.412981 -4.390782 9.906695 17.631596 14.345709 1.713911 -20.337906 19.846874 2.601485 -29.626068 11.520921 11.783562 45.208652 -1.620674 -3.410665 -21.552225 -5.174098 0.402474 
-39.835022 41.053104 82.824883 6.875830 9.192370 -64.226997 -22.063400 -3.949080 -1.244440 23.853300 -3.344080 -1.608770 39.953098 29.798401 -0.673718 -8.603520 0.000000 0.000000 2.000000 -2.000000 0.000000 -75.137703 -11.092300 -171.175003 36.553101 -0.324674 0.081482 5.488410 0.971880 -160.373001 -2.000000 2.000000 0.000000 75.788002 4.455570 -146.386993 -60.088402 0.283025 0.118516 5.264000 4.156420 -152.738007 5.330684 -4.742538 10.130670 17.426817 14.218079 1.658228 -20.491125 19.694117 2.730438 -29.802294 11.063020 11.779002 45.464897 -1.589580 -3.429615 -22.313444 -5.022524 0.357996 
-39.990948 40.985344 83.020912 6.920800 9.463060 -64.119904 -21.956800 -3.570520 -1.319190 23.911501 -3.217140 -1.536400 40.442101 29.672300 -0.582181 -8.603520 0.000000 0.000000 2.000000 -2.000000 0.000000 -75.332802 -10.954900 -170.852997 36.719101 -0.324437 0.081800 5.488740 0.971763 -160.354004 -2.000000 2.000000 0.000000 75.544403 4.671090 -146.729004 -60.049301 0.283106 0.118469 5.264000 4.156420 -152.738007 5.272393 -4.923638 10.420574 17.442818 14.231864 1.691802 -20.546986 19.386301 2.653632 -29.843658 10.787387 11.675743 45.680412 -1.591798 -3.443756 -23.048384 -4.954345 0.297131 
-40.192596 40.927059 83.224808 6.982780 9.587900 -64.025101 -21.899000 -3.184030 -1.456460 23.940399 -3.070820 -1.500100 40.305302 29.779499 -0.621331 -8.603520 0.000000 0.000000 2.000000 -2.000000 0.000000 -75.596298 -10.817300 -170.511002 36.758202 -0.324382 0.081875 5.489730 0.971413 -160.294998 -2.000000 2.000000 0.000000 75.388298 4.778750 -146.845993 -59.922401 0.283368 0.118318 5.271090 4.152740 -152.641006 5.309121 -4.977115 10.773418 17.642643 14.316064 1.710427 -20.468151 19.023464 2.456414 -29.664911 10.636849 11.546287 45.798977 -1.582507 -3.465552 -23.825222 -5.045958 0.167506 
-40.453331 40.879814 83.438019 6.964180 9.646460 -63.933399 -21.930500 -2.852880 -1.630380 23.959400 -2.885540 -1.499900 39.810902 30.123800 -0.763765 -8.603520 0.000000 0.000000 2.000000 -2.000000 0.000000 -75.928101 -10.650600 -170.209000 36.680099 -0.324493 0.081725 5.487460 0.961858 -160.237000 -2.000000 2.000000 0.000000 75.349098 4.768770 -146.738007 -59.590401 0.284052 0.117919 5.276450 4.138920 -152.503998 5.528967 -5.060350 11.102650 17.741844 14.415015 1.732876 -20.053581 18.674313 2.187087 -29.245586 10.478538 11.451392 45.836216 -1.607711 -3.445698 -24.666395 -5.222925 -0.023877 
-40.778885 40.844887 83.663254 6.805720 9.649620 -63.785400 -22.051201 -2.617310 -1.836520 23.958799 -2.690570 -1.546890 39.200298 30.587799 -0.942375 -8.603520 0.000000 0.000000 2.000000 -2.000000 0.000000 -76.279503 -10.425300 -169.917007 36.543400 -0.324688 0.081463 5.487460 0.961858 -160.237000 -2.000000 2.000000 0.000000 75.436600 4.621760 -146.475006 -59.033699 0.285195 0.117241 5.292930 4.124350 -152.348007 5.776349 -5.250112 11.357508 18.053957 14.630446 1.792225 -19.436993 18.428280 1.777480 -28.628742 10.237228 11.453415 45.874157 -1.620680 -3.430391 -25.509861 -5.499705 -0.275298 
-41.171173 40.822430 83.897934 6.585380 9.527730 -63.562401 -22.260000 -2.450500 -2.087670 23.929001 -2.505420 -1.632250 38.657600 31.091900 -1.066910 -8.603520 0.000000 0.000000 2.000000 -2.000000 0.000000 -76.640503 -10.121900 -169.636002 36.426201 -0.324854 0.081239 5.486640 0.962148 -160.285995 -2.000000 2.000000 0.000000 75.582603 4.279250 -146.113998 -58.379398 0.286529 0.116430 5.296370 4.100410 -152.171997 6.147198 -5.400860 11.494152 18.472153 14.922279 1.894098 -18.538023 18.272497 1.274639 -27.803022 10.049447 11.486447 45.912601 -1.629046 -3.423023 -26.277767 -5.866274 -0.553441 
-41.626930 40.812824 84.142494 6.362020 9.230900 -63.202999 -22.527100 -2.352910 -2.384540 23.889500 -2.339790 -1.747830 38.189201 31.616699 -1.118630 -8.603520 0.000000 0.000000 2.000000 -2.000000 0.000000 -76.982002 -9.769640 -169.334000 36.328499 -0.324992 0.081051 5.489230 0.971588 -160.324997 -2.000000 2.000000 0.000000 75.699097 3.721780 -145.695007 -57.764198 0.287775 0.115653 5.314790 4.084730 -151.985992 6.693021 -5.409125 11.539742 18.902374 15.197637 1.966991 -17.278412 18.174732 0.681394 -26.764231 9.958627 11.460206 45.978134 -1.676264 -3.401582 -26.990208 -6.359865 -0.888435 
-42.141663 40.815815 84.395821 6.185850 8.767810 -62.675701 -22.832001 -2.301080 -2.747960 23.859900 -2.222870 -1.915660 37.671398 32.118801 -1.169450 -8.603520 0.000000 0.000000 2.000000 -2.000000 0.000000 -77.313797 -9.417430 -169.061005 36.279701 -0.325061 0.080957 5.486640 0.962148 -160.285995 -2.000000 2.000000 0.000000 75.747200 2.998160 -145.209000 -57.295399 0.288718 0.115053 5.319190 4.071270 -151.860001 7.326655 -5.252423 11.410609 19.462633 15.600245 2.093978 -15.660674 18.163750 -0.072347 -25.417011 9.998589 11.383347 45.750961 -1.714183 -3.383970 -27.519590 -6.932121 -1.285722 
-42.705151 40.830486 84.652176 6.087660 8.186630 -61.980598 -23.155500 -2.299390 -3.133660 23.850000 -2.174140 -2.107780 36.991699 32.605301 -1.320210 -8.603520 0.000000 0.000000 2.000000 -2.000000 0.000000 -77.616302 -9.094670 -168.847000 36.289398 -0.325047 0.080976 5.488110 0.961626 -160.197998 -2.000000 2.000000 0.000000 75.746399 2.186550 -144.662994 -56.934101 0.289442 0.114585 5.321970 4.069780 -151.820999 7.914279 -4.939680 11.181924 20.300993 16.152197 2.280668 -13.838634 18.293468 -0.970472 -23.854158 10.182958 11.214052 45.335396 -1.781491 -3.334960 -27.996538 -7.625175 -1.711278 
-43.303013 40.856445 84.906845 5.979720 7.547080 -61.173801 -23.499001 -2.369760 -3.489790 23.840300 -2.174160 -2.312490 36.177799 33.074699 -1.518540 -8.603520 0.000000 0.000000 2.000000 -2.000000 0.000000 -77.860298 -8.811030 -168.662003 36.367599 -0.324937 0.081126 5.485650 0.952136 -160.149002 -2.000000 2.000000 0.000000 75.725998 1.365100 -144.078995 -56.621601 0.290066 0.114176 5.320580 4.070520 -151.839996 8.622770 -4.531345 10.819835 21.000668 16.624470 2.457349 -11.699736 18.547037 -1.905588 -22.139744 10.408504 11.057785 44.724007 -1.847210 -3.280012 -28.384212 -8.379066 -2.192829 
-43.918518 40.894222 85.154213 5.813590 6.888560 -60.256599 -23.852800 -2.511710 -3.814890 23.801201 -2.184000 -2.516640 35.240501 33.539200 -1.773190 -8.603520 0.000000 0.000000 2.000000 -2.000000 0.000000 -78.055397 -8.546810 -168.427994 36.465199 -0.324799 0.081314 5.485810 0.952078 -160.139008 -2.000000 2.000000 0.000000 75.695801 0.592399 -143.445999 -56.270000 0.290765 0.113712 5.317800 4.072020 -151.878998 9.350569 -4.097436 10.345072 21.671516 17.036205 2.606590 -9.414941 18.865116 -2.871985 -20.259117 10.620927 10.919617 43.878479 -1.910763 -3.239077 -28.642618 -9.142369 -2.675856 
-44.536041 40.942646 85.392593 5.579940 6.230340 -59.284500 -24.218500 -2.716470 -4.057940 23.732800 -2.213390 -2.701210 34.261501 33.992802 -2.030660 -8.603520 0.000000 0.000000 2.000000 -2.000000 0.000000 -78.191803 -8.350630 -168.057999 36.523800 -0.324715 0.081426 5.485810 0.952078 -160.139008 -2.000000 2.000000 0.000000 75.704597 -0.072949 -142.774002 -55.801300 0.291693 0.113087 5.318270 4.082860 -151.938004 10.080667 -3.678982 9.793965 22.279434 17.416525 2.756075 -6.940783 19.213820 -3.897906 -18.406466 10.805181 10.687805 43.047825 -2.021619 -3.145982 -28.867708 -9.841708 -3.091260 
